<?xml version="1.0" encoding="UTF-8" standalone="no"?>
<svg
   xmlns:dc="http://purl.org/dc/elements/1.1/"
   xmlns:cc="http://creativecommons.org/ns#"
   xmlns:rdf="http://www.w3.org/1999/02/22-rdf-syntax-ns#"
   xmlns:svg="http://www.w3.org/2000/svg"
   xmlns="http://www.w3.org/2000/svg"
   viewBox="0 0 666.66669 666.66669"
   height="666.66669"
   width="666.66669"
   xml:space="preserve"
   id="svg2"
   version="1.1"><metadata
     id="metadata8"><rdf:RDF><cc:Work
         rdf:about=""><dc:format>image/svg+xml</dc:format><dc:type
           rdf:resource="http://purl.org/dc/dcmitype/StillImage" /></cc:Work></rdf:RDF></metadata><defs
     id="defs6"><clipPath
       id="clipPath18"
       clipPathUnits="userSpaceOnUse"><path
         id="path16"
         d="M 0,500 H 500 V 0 H 0 Z" /></clipPath></defs><g
     transform="matrix(1.3333333,0,0,-1.3333333,0,666.66667)"
     id="g10"><g
       id="g12"><g
         clip-path="url(#clipPath18)"
         id="g14"><g
           transform="translate(291.4951,374.5562)"
           id="g20"><path
             id="path22"
             style="fill:#000000;fill-opacity:1;fill-rule:nonzero;stroke:none"
             d="M 0,0 -50.76,-29.309 V 29.303 L 0,58.611 Z m -53.579,-92.718 -50.759,-29.308 v 58.611 l 50.759,29.309 z m -53.578,-92.718 -50.759,-29.309 v 58.613 l 50.759,29.308 z m -104.337,-3.195 49.329,-28.481 -49.329,-28.479 z m -53.546,30.958 50.763,-29.307 v -58.611 l -50.763,29.305 z m 50.795,30.934 v -57.045 l -49.403,28.521 z m 53.578,92.718 v -57.045 l -49.403,28.521 z m 53.578,92.718 V 1.652 l -49.403,28.521 z m 54.938,31.632 50.759,-29.308 -12.984,-7.496 -37.737,-21.789 -50.76,29.309 z m -108.584,-248.002 v -57.051 l -49.406,28.525 z m -1.431,2.387 -49.295,-28.461 v 56.923 z m 0.112,61.806 -49.407,-28.524 v 57.048 z m 53.466,30.912 -49.295,-28.461 v 56.923 z m 0.112,61.806 -49.407,-28.524 V 27.762 Z M -55.01,30.15 -104.306,1.689 v 56.922 z m -105.689,-183.024 -2.701,1.559 -46.631,26.924 49.332,28.48 z m 53.578,92.718 -2.701,1.559 -46.631,26.925 49.332,28.48 z m 2.783,56.961 49.329,-28.481 -49.329,-28.48 z m 50.759,-26.091 -49.405,28.524 49.405,28.524 z m -104.337,-66.627 49.329,-28.481 -49.329,-28.48 z m 50.759,-26.091 -49.405,28.524 49.405,28.524 z M 2.087,62.227 -51.456,93.141 c -0.429,0.247 -0.962,0.247 -1.391,0 l -53.304,-30.774 c -0.091,-0.03 -0.189,-0.025 -0.274,-0.074 l -53.546,-30.916 c -0.429,-0.247 -0.696,-0.707 -0.696,-1.204 v -60.982 l -52.882,-30.532 c -0.43,-0.247 -0.696,-0.706 -0.696,-1.204 v -60.981 l -52.882,-30.533 c -0.43,-0.247 -0.696,-0.706 -0.696,-1.204 v -61.827 c 0,-0.497 0.266,-0.957 0.696,-1.204 l 53.545,-30.913 c 0.215,-0.125 0.457,-0.187 0.696,-0.187 0.24,0 0.481,0.062 0.696,0.187 l 53.3,30.773 c 0.093,0.029 0.192,0.024 0.278,0.074 l 53.543,30.915 c 0.429,0.248 0.695,0.707 0.695,1.204 v 60.981 l 52.883,30.533 c 0.429,0.248 0.696,0.707 0.696,1.205 v 60.98 L 2.087,-2.009 c 0.43,0.248 0.696,0.707 0.696,1.204 v 61.826 c 0,0.498 -0.266,0.957 -0.696,1.206" /></g><g
           transform="translate(266.0596,374.6655)"
           id="g24"><path
             id="path26"
             style="fill:#000000;fill-opacity:1;fill-rule:nonzero;stroke:none"
             d="m 0,0 c -2.028,-1.171 -3.946,-1.726 -5.646,-1.726 -4.147,0 -6.995,3.306 -6.995,9.024 0,8.061 5.66,17.863 12.641,21.893 2.028,1.171 3.946,1.726 5.646,1.726 4.147,10e-4 6.995,-3.305 6.995,-9.023 0,-0.231 -0.05,-0.475 -0.06,-0.708 -0.663,2.466 -2.894,3.287 -5.573,1.741 -3.199,-1.848 -5.793,-6.341 -5.793,-10.035 0,-3.695 2.594,-5.193 5.793,-3.346 1.48,0.855 2.816,2.286 3.84,3.932 C 8.648,7.909 4.638,2.678 0,0 m 5.646,33.508 v 0 C 3.423,33.507 1.088,32.81 -1.295,31.435 -9.109,26.923 -15.23,16.321 -15.23,7.298 c 0,-6.947 3.851,-11.614 9.584,-11.614 2.223,0 4.558,0.697 6.941,2.073 7.814,4.512 13.935,15.114 13.935,24.137 0,6.946 -3.851,11.614 -9.584,11.614" /></g><g
           transform="translate(266.0596,374.6655)"
           id="g28"><path
             id="path30"
             style="fill:#000000;fill-opacity:1;fill-rule:nonzero;stroke:none"
             d="m 0,0 c -2.028,-1.171 -3.946,-1.726 -5.646,-1.726 -4.147,0 -6.995,3.306 -6.995,9.024 0,8.061 5.66,17.863 12.641,21.893 2.028,1.171 3.946,1.726 5.646,1.726 4.147,10e-4 6.995,-3.305 6.995,-9.023 0,-0.231 -0.05,-0.475 -0.06,-0.708 -0.663,2.466 -2.894,3.287 -5.573,1.741 -3.199,-1.848 -5.793,-6.341 -5.793,-10.035 0,-3.695 2.594,-5.193 5.793,-3.346 1.48,0.855 2.816,2.286 3.84,3.932 C 8.648,7.909 4.638,2.678 0,0 m 5.646,33.508 v 0 C 3.423,33.507 1.088,32.81 -1.295,31.435 -9.109,26.923 -15.23,16.321 -15.23,7.298 c 0,-6.947 3.851,-11.614 9.584,-11.614 2.223,0 4.558,0.697 6.941,2.073 7.814,4.512 13.935,15.114 13.935,24.137 0,6.946 -3.851,11.614 -9.584,11.614" /></g><g
           transform="translate(322.3193,428.168)"
           id="g32"><path
             id="path34"
             style="fill:#000000;fill-opacity:1;fill-rule:nonzero;stroke:none"
             d="m 0,0 c 3.545,10.735 6.135,18.73 1.683,33.137 -10.526,-25.298 -12.552,-47 -30.124,-51.61 v -9.381 c 13.573,3.08 29.109,29.185 68.353,25.81 C 13.851,5.683 -0.484,-1.467 0,0" /></g><g
           transform="translate(291.9102,375.0332)"
           id="g36"><path
             id="path38"
             style="fill:#000000;fill-opacity:1;fill-rule:nonzero;stroke:none"
             d="M 0,0 -51.137,-29.526 V 29.521 L 0,59.046 Z m -53.977,-31.077 -51.137,-29.527 v 59.048 l 51.137,29.527 z m 0,-62.33 -51.137,-29.527 v 59.048 l 51.137,29.527 z m -107.953,-124.494 -51.136,-29.527 v 59.047 l 51.136,29.527 z m 53.977,93.407 -51.137,-29.527 v 59.049 l 51.137,29.526 z m 0,-62.32 -51.137,-29.527 v 59.047 l 51.137,29.527 z m -51.119,214.783 51.139,-29.524 v -59.048 l -51.139,29.524 z m -54.078,-93.466 51.139,-29.524 v -59.047 l -51.139,29.523 z m -53.86,-93.349 51.139,-29.524 v -59.048 l -51.139,29.524 z M 2.103,62.69 -51.838,93.833 c -0.433,0.25 -0.97,0.25 -1.402,0 l -53.699,-31.002 c -0.093,-0.03 -0.192,-0.025 -0.277,-0.074 L -161.16,31.611 c -0.433,-0.25 -0.701,-0.713 -0.701,-1.214 v -61.435 l -53.276,-30.759 c -0.432,-0.249 -0.7,-0.712 -0.7,-1.213 v -61.435 l -53.276,-30.759 c -0.433,-0.249 -0.701,-0.712 -0.701,-1.213 v -62.287 c 0,-0.501 0.268,-0.964 0.701,-1.213 l 53.944,-31.143 c 0.216,-0.126 0.46,-0.188 0.7,-0.188 0.241,0 0.485,0.062 0.701,0.188 l 53.697,31.001 c 0.093,0.031 0.194,0.026 0.28,0.076 l 53.941,31.145 c 0.433,0.249 0.701,0.712 0.701,1.213 v 61.434 l 53.275,30.76 c 0.433,0.249 0.701,0.712 0.701,1.213 v 61.434 L 2.103,-2.023 c 0.432,0.249 0.701,0.711 0.701,1.212 v 62.287 c 0,0.501 -0.269,0.963 -0.701,1.214" /></g><g
           transform="translate(266.2861,375.1436)"
           id="g40"><path
             id="path42"
             style="fill:#000000;fill-opacity:1;fill-rule:nonzero;stroke:none"
             d="m 0,0 c -2.044,-1.18 -3.976,-1.739 -5.687,-1.739 -4.179,0 -7.047,3.33 -7.047,9.091 0,8.121 5.701,17.996 12.734,22.056 2.043,1.18 3.976,1.739 5.687,1.739 4.178,0.001 7.047,-3.33 7.047,-9.091 0,-0.232 -0.05,-0.477 -0.059,-0.713 -0.669,2.485 -2.917,3.312 -5.615,1.754 -3.224,-1.861 -5.836,-6.388 -5.836,-10.11 0,-3.722 2.612,-5.231 5.836,-3.369 1.491,0.86 2.836,2.302 3.869,3.96 C 8.713,7.967 4.672,2.697 0,0 m 5.687,33.757 v 0 C 3.448,33.756 1.096,33.054 -1.305,31.668 -9.178,27.123 -15.344,16.442 -15.344,7.352 c 0,-6.998 3.881,-11.701 9.657,-11.701 2.238,0 4.59,0.703 6.992,2.089 7.872,4.546 14.038,15.226 14.038,24.316 0,6.999 -3.88,11.701 -9.656,11.701" /></g><g
           transform="translate(322.9639,429.0435)"
           id="g44"><path
             id="path46"
             style="fill:#000000;fill-opacity:1;fill-rule:nonzero;stroke:none"
             d="M 0,0 C 3.571,10.815 6.181,18.87 1.695,33.383 -8.909,7.897 -10.949,-13.965 -28.652,-18.609 v -9.452 C -14.979,-24.958 0.673,1.341 40.209,-2.059 13.953,5.726 -0.488,-1.478 0,0" /></g><g
           transform="translate(280.9512,244.3398)"
           id="g48"><path
             id="path50"
             style="fill:#000000;fill-opacity:1;fill-rule:nonzero;stroke:none"
             d="m 0,0 c -2.498,0 -4.592,-0.95 -6.282,-2.852 -1.691,-1.9 -2.677,-4.284 -2.958,-7.149 l 0.056,-0.141 H 8.677 v 0.843 c 0,2.641 -0.78,4.851 -2.338,6.631 C 4.779,-0.89 2.667,0 0,0 m 0.423,-28.764 c -3.814,0 -6.983,1.409 -9.508,4.226 -2.526,2.818 -3.79,6.386 -3.79,10.706 v 1.55 c 0,4.356 1.254,7.971 3.761,10.845 2.508,2.874 5.546,4.311 9.114,4.311 3.737,0 6.677,-1.184 8.817,-3.55 2.142,-2.366 3.212,-5.521 3.212,-9.466 v -2.874 H -9.494 v -0.814 c 0,-3.43 0.91,-6.298 2.733,-8.603 1.821,-2.304 4.216,-3.457 7.184,-3.457 2.103,0 3.897,0.291 5.381,0.873 1.483,0.582 2.751,1.418 3.802,2.508 l 1.438,-2.31 c -1.147,-1.207 -2.597,-2.166 -4.353,-2.877 -1.756,-0.712 -3.845,-1.068 -6.268,-1.068" /></g><g
           transform="translate(307.9678,223.8027)"
           id="g52"><path
             id="path54"
             style="fill:#000000;fill-opacity:1;fill-rule:nonzero;stroke:none"
             d="m 0,0 0.986,-3.578 h 0.17 L 2.227,0 10.509,22.848 h 3.493 L 2.424,-7.635 h -2.705 l -11.608,30.483 h 3.494 z" /></g><g
           transform="translate(328.5908,230.9443)"
           id="g56"><path
             id="path58"
             style="fill:#000000;fill-opacity:1;fill-rule:nonzero;stroke:none"
             d="m 0,0 c 0,-3.527 0.892,-6.491 2.676,-8.893 1.784,-2.401 4.272,-3.601 7.466,-3.601 3.135,0 5.601,1.2 7.394,3.601 1.794,2.402 2.692,5.366 2.692,8.893 v 0.93 c 0,3.469 -0.903,6.416 -2.706,8.836 -1.802,2.42 -4.282,3.63 -7.437,3.63 -3.155,0 -5.625,-1.21 -7.409,-3.63 C 0.892,7.346 0,4.399 0,0.93 Z m -3.381,0.916 c 0,4.488 1.23,8.169 3.691,11.043 2.46,2.874 5.718,4.311 9.775,4.311 4.075,0 7.344,-1.437 9.804,-4.311 2.461,-2.874 3.69,-6.555 3.69,-11.043 v -0.93 c 0,-4.507 -1.225,-8.194 -3.676,-11.057 -2.451,-2.865 -5.705,-4.297 -9.761,-4.297 -4.095,0 -7.372,1.432 -9.832,4.297 -2.461,2.863 -3.691,6.55 -3.691,11.057 z" /></g><g
           transform="translate(288.1914,166.2334)"
           id="g60"><path
             id="path62"
             style="fill:#000000;fill-opacity:1;fill-rule:nonzero;stroke:none"
             d="m 0,0 c 0,1.424 -0.588,2.671 -1.761,3.738 -1.174,1.068 -3.292,1.94 -6.352,2.615 -3.645,0.788 -6.335,1.831 -8.072,3.126 -1.737,1.296 -2.606,3.127 -2.606,5.494 0,2.329 0.981,4.296 2.944,5.902 1.962,1.605 4.559,2.408 7.789,2.408 3.438,0 6.162,-0.849 8.171,-2.549 2.009,-1.7 2.967,-3.827 2.873,-6.38 L 2.93,14.184 h -3.127 c 0,1.671 -0.709,3.128 -2.127,4.367 -1.418,1.239 -3.329,1.859 -5.734,1.859 -2.46,0 -4.305,-0.528 -5.536,-1.584 -1.229,-1.055 -1.844,-2.294 -1.844,-3.714 0,-1.401 0.53,-2.56 1.591,-3.475 1.061,-0.916 3.179,-1.721 6.354,-2.411 C -3.869,8.415 -1.154,7.308 0.647,5.904 2.451,4.5 3.353,2.593 3.353,0.182 c 0,-2.544 -1.029,-4.603 -3.085,-6.176 -2.057,-1.573 -4.776,-2.36 -8.157,-2.36 -3.7,0 -6.606,0.883 -8.718,2.649 -2.114,1.765 -3.114,3.868 -3.001,6.31 l 0.057,0.169 h 3.099 c 0.131,-2.187 1.027,-3.777 2.689,-4.767 1.663,-0.992 3.621,-1.487 5.874,-1.487 2.443,0 4.368,0.534 5.777,1.601 C -0.704,-2.811 0,-1.518 0,0" /></g><g
           transform="translate(319.2939,163.458)"
           id="g64"><path
             id="path66"
             style="fill:#000000;fill-opacity:1;fill-rule:nonzero;stroke:none"
             d="m 0,0 c -0.977,-1.785 -2.292,-3.16 -3.944,-4.128 -1.653,-0.967 -3.606,-1.45 -5.86,-1.45 -3.212,0 -5.728,1.089 -7.55,3.267 -1.822,2.179 -2.733,5.559 -2.733,10.142 v 17.665 h 3.381 V 7.739 c 0,-3.726 0.634,-6.398 1.901,-8.016 1.268,-1.619 3.067,-2.428 5.395,-2.428 2.555,0 4.593,0.574 6.114,1.723 1.522,1.147 2.582,2.728 3.184,4.742 v 21.736 h 3.38 V -4.986 H 0.281 Z" /></g><g
           transform="translate(334.2812,188.9541)"
           id="g68"><path
             id="path70"
             style="fill:#000000;fill-opacity:1;fill-rule:nonzero;stroke:none"
             d="m 0,0 0.31,-5.044 c 0.976,1.784 2.277,3.165 3.902,4.142 1.624,0.976 3.563,1.464 5.817,1.464 2.328,0 4.278,-0.562 5.846,-1.689 1.567,-1.128 2.69,-2.846 3.366,-5.156 0.921,2.141 2.231,3.817 3.931,5.029 1.699,1.211 3.769,1.816 6.212,1.816 3.249,0 5.756,-1.08 7.521,-3.239 1.766,-2.16 2.649,-5.503 2.649,-10.029 v -17.776 h -3.38 v 17.868 c 0,3.763 -0.663,6.422 -1.986,7.974 -1.325,1.553 -3.17,2.329 -5.537,2.329 -2.611,0 -4.63,-0.818 -6.056,-2.456 -1.428,-1.637 -2.311,-3.736 -2.649,-6.295 0,-0.131 0.004,-0.32 0.014,-0.564 0.009,-0.245 0.015,-0.424 0.015,-0.537 v -18.319 h -3.41 v 17.868 c 0,3.688 -0.671,6.328 -2.014,7.918 -1.343,1.59 -3.189,2.385 -5.535,2.385 -2.386,0 -4.279,-0.607 -5.678,-1.821 -1.399,-1.214 -2.38,-2.847 -2.943,-4.897 v -21.453 h -3.41 l 0,30.482 z" /></g><g
           transform="translate(385.4141,188.9541)"
           id="g72"><path
             id="path74"
             style="fill:#000000;fill-opacity:1;fill-rule:nonzero;stroke:none"
             d="m 0,0 0.31,-5.044 c 0.976,1.784 2.277,3.165 3.902,4.142 1.624,0.976 3.563,1.464 5.817,1.464 2.328,0 4.278,-0.562 5.846,-1.689 1.567,-1.128 2.69,-2.846 3.366,-5.156 0.921,2.141 2.231,3.817 3.931,5.029 1.699,1.211 3.769,1.816 6.212,1.816 3.249,0 5.756,-1.08 7.521,-3.239 1.766,-2.16 2.649,-5.503 2.649,-10.029 v -17.776 h -3.381 v 17.868 c 0,3.763 -0.662,6.422 -1.985,7.974 -1.325,1.553 -3.17,2.329 -5.537,2.329 -2.611,0 -4.63,-0.818 -6.056,-2.456 -1.428,-1.637 -2.311,-3.736 -2.649,-6.295 0,-0.131 0.004,-0.32 0.014,-0.564 0.009,-0.245 0.015,-0.424 0.015,-0.537 v -18.319 h -3.41 v 17.868 c 0,3.688 -0.671,6.328 -2.014,7.918 -1.343,1.59 -3.189,2.385 -5.535,2.385 -2.386,0 -4.279,-0.607 -5.678,-1.821 -1.4,-1.214 -2.38,-2.847 -2.943,-4.897 v -21.453 h -3.41 l 0,30.482 z" /></g><g
           transform="translate(444.7168,186.6436)"
           id="g76"><path
             id="path78"
             style="fill:#000000;fill-opacity:1;fill-rule:nonzero;stroke:none"
             d="m 0,0 c -2.498,0 -4.593,-0.95 -6.282,-2.852 -1.691,-1.901 -2.677,-4.284 -2.959,-7.15 l 0.057,-0.141 H 8.677 V -9.3 c 0,2.642 -0.78,4.852 -2.338,6.631 C 4.779,-0.89 2.666,0 0,0 m 0.423,-28.764 c -3.814,0 -6.983,1.409 -9.509,4.226 -2.526,2.817 -3.789,6.385 -3.789,10.705 v 1.55 c 0,4.356 1.254,7.972 3.761,10.846 2.508,2.874 5.546,4.31 9.114,4.31 3.737,0 6.677,-1.183 8.817,-3.55 2.142,-2.366 3.212,-5.52 3.212,-9.466 v -2.873 H -9.494 v -0.815 c 0,-3.43 0.91,-6.297 2.732,-8.602 1.822,-2.305 4.217,-3.458 7.185,-3.458 2.102,0 3.896,0.291 5.381,0.874 1.482,0.582 2.751,1.417 3.802,2.507 l 1.438,-2.31 C 9.897,-26.027 8.446,-26.985 6.69,-27.697 4.935,-28.408 2.846,-28.764 0.423,-28.764" /></g><g
           transform="translate(477.4531,186.0518)"
           id="g80"><path
             id="path82"
             style="fill:#000000;fill-opacity:1;fill-rule:nonzero;stroke:none"
             d="m 0,0 -2.507,0.169 c -2.123,0 -3.865,-0.596 -5.226,-1.789 -1.363,-1.193 -2.334,-2.831 -2.916,-4.915 V -27.58 H -14.03 V 2.902 h 2.958 l 0.423,-5.071 v -0.338 c 0.882,1.878 2.066,3.342 3.549,4.395 1.484,1.051 3.249,1.577 5.296,1.577 0.433,0 0.851,-0.032 1.254,-0.098 C -0.146,3.301 0.187,3.23 0.451,3.155 Z" /></g><g
           transform="translate(291.0928,115.8037)"
           id="g84"><path
             id="path86"
             style="fill:#000000;fill-opacity:1;fill-rule:nonzero;stroke:none"
             d="m 0,0 c 0,3.873 -0.77,7.032 -2.31,9.477 -1.54,2.443 -3.794,3.666 -6.761,3.666 -2.273,0 -4.118,-0.54 -5.535,-1.622 -1.419,-1.081 -2.485,-2.487 -3.198,-4.215 V -7.36 c 0.769,-1.674 1.882,-2.991 3.338,-3.95 1.455,-0.958 3.273,-1.437 5.451,-1.437 2.949,0 5.188,1.109 6.719,3.328 C -0.765,-7.201 0,-4.259 0,-0.592 Z m 3.381,-0.634 c 0,-4.563 -1.032,-8.202 -3.099,-10.916 -2.066,-2.714 -4.911,-4.071 -8.536,-4.071 -2.141,0 -4.015,0.404 -5.621,1.212 -1.605,0.806 -2.915,1.962 -3.929,3.465 v -15.805 h -3.381 v 42.202 h 2.845 l 0.423,-4.732 c 1.015,1.69 2.324,2.995 3.93,3.915 1.606,0.921 3.498,1.381 5.676,1.381 3.664,0 6.527,-1.461 8.593,-4.381 C 2.349,8.715 3.381,4.822 3.381,-0.042 Z" /></g><g
           transform="translate(310.3916,109.0293)"
           id="g88"><path
             id="path90"
             style="fill:#000000;fill-opacity:1;fill-rule:nonzero;stroke:none"
             d="m 0,0 1.07,-3.635 h 0.169 l 9.212,25.863 h 3.776 L 0.985,-13.129 c -0.789,-2.065 -1.812,-3.821 -3.07,-5.267 -1.259,-1.447 -3.1,-2.17 -5.521,-2.17 -0.395,0 -0.874,0.043 -1.438,0.127 -0.562,0.085 -0.977,0.173 -1.239,0.267 l 0.394,2.818 c 0.225,-0.038 0.587,-0.081 1.085,-0.127 0.497,-0.047 0.859,-0.071 1.084,-0.071 1.465,0 2.639,0.522 3.522,1.564 0.883,1.043 1.634,2.381 2.254,4.014 l 1.606,4.114 -11.776,30.088 h 3.747 z" /></g><g
           transform="translate(335.2666,139.0605)"
           id="g92"><path
             id="path94"
             style="fill:#000000;fill-opacity:1;fill-rule:nonzero;stroke:none"
             d="m 0,0 v -7.804 h 6.705 v -2.76 H 0 v -19.862 c 0,-1.991 0.362,-3.404 1.085,-4.24 0.723,-0.836 1.686,-1.254 2.888,-1.254 0.545,0 1.075,0.024 1.591,0.071 0.517,0.046 1.113,0.126 1.79,0.239 l 0.506,-2.507 c -0.563,-0.243 -1.249,-0.432 -2.056,-0.564 -0.808,-0.131 -1.616,-0.197 -2.423,-0.197 -2.141,0 -3.808,0.677 -5,2.028 -1.194,1.353 -1.789,3.495 -1.789,6.424 v 19.862 h -5.269 v 2.76 h 5.269 V 0 Z" /></g><g
           transform="translate(352.5088,126.0449)"
           id="g96"><path
             id="path98"
             style="fill:#000000;fill-opacity:1;fill-rule:nonzero;stroke:none"
             d="m 0,0 c 1.014,1.821 2.366,3.24 4.057,4.254 1.69,1.015 3.662,1.521 5.916,1.521 3.212,0 5.676,-0.996 7.395,-2.986 1.718,-1.991 2.578,-5.08 2.578,-9.268 v -18.792 h -3.381 v 18.885 c 0,3.313 -0.653,5.688 -1.958,7.128 C 13.302,2.182 11.503,2.901 9.212,2.901 6.901,2.901 4.973,2.295 3.423,1.081 1.873,-0.134 0.732,-1.747 0,-3.76 v -21.511 h -3.381 v 43.95 H 0 Z" /></g><g
           transform="translate(382.7373,115.5508)"
           id="g100"><path
             id="path102"
             style="fill:#000000;fill-opacity:1;fill-rule:nonzero;stroke:none"
             d="m 0,0 c 0,-3.526 0.892,-6.491 2.677,-8.893 1.784,-2.401 4.271,-3.601 7.465,-3.601 3.136,0 5.601,1.2 7.395,3.601 1.793,2.402 2.691,5.367 2.691,8.893 v 0.93 c 0,3.47 -0.902,6.416 -2.705,8.836 -1.803,2.42 -4.282,3.63 -7.437,3.63 -3.156,0 -5.625,-1.21 -7.409,-3.63 C 0.892,7.346 0,4.4 0,0.93 Z m -3.381,0.916 c 0,4.488 1.23,8.17 3.691,11.043 2.461,2.874 5.718,4.311 9.776,4.311 4.075,0 7.343,-1.437 9.804,-4.311 2.46,-2.873 3.69,-6.555 3.69,-11.043 v -0.93 c 0,-4.507 -1.226,-8.194 -3.677,-11.057 -2.451,-2.865 -5.705,-4.297 -9.761,-4.297 -4.095,0 -7.371,1.432 -9.832,4.297 -2.461,2.863 -3.691,6.55 -3.691,11.057 z" /></g><g
           transform="translate(416.3467,131.2568)"
           id="g104"><path
             id="path106"
             style="fill:#000000;fill-opacity:1;fill-rule:nonzero;stroke:none"
             d="m 0,0 0.31,-5.324 c 0.976,1.878 2.295,3.328 3.959,4.352 1.661,1.024 3.628,1.535 5.901,1.535 3.306,0 5.822,-1.009 7.551,-3.028 1.726,-2.019 2.591,-5.17 2.591,-9.452 v -18.565 h -3.38 v 18.574 c 0,3.501 -0.654,5.975 -1.958,7.425 -1.306,1.448 -3.161,2.172 -5.565,2.172 -2.366,0 -4.296,-0.625 -5.789,-1.876 C 2.127,-5.439 1.051,-7.1 0.395,-9.169 v -21.313 h -3.381 l 0,30.482 z" /></g><path
           id="path108"
           style="fill:#000000;fill-opacity:1;fill-rule:nonzero;stroke:none"
           d="m 273.711,31.538 h -3.353 v 43.949 h 3.353 z" /><g
           transform="translate(291.2627,33.9326)"
           id="g110"><path
             id="path112"
             style="fill:#000000;fill-opacity:1;fill-rule:nonzero;stroke:none"
             d="m 0,0 c 2.423,0 4.563,0.568 6.423,1.705 1.859,1.136 3.202,2.587 4.029,4.353 v 6.366 h -6.79 c -3.061,0 -5.508,-0.653 -7.339,-1.958 -1.831,-1.305 -2.747,-2.926 -2.747,-4.86 0,-1.652 0.569,-3 1.705,-4.042 C -3.583,0.521 -2.01,0 0,0 M 11.071,-2.395 C 10.846,-1.361 10.687,-0.47 10.593,0.282 10.498,1.033 10.452,1.794 10.452,2.563 9.324,0.967 7.822,-0.356 5.944,-1.408 4.066,-2.46 1.953,-2.986 -0.395,-2.986 c -2.967,0 -5.273,0.789 -6.916,2.367 -1.643,1.577 -2.464,3.69 -2.464,6.339 0,2.816 1.214,5.07 3.647,6.76 2.433,1.691 5.715,2.537 9.847,2.537 h 6.733 v 3.774 c 0,2.179 -0.7,3.888 -2.099,5.127 -1.4,1.24 -3.357,1.859 -5.874,1.859 -2.348,0 -4.296,-0.59 -5.846,-1.774 -1.549,-1.184 -2.324,-2.63 -2.324,-4.338 l -3.099,0.027 -0.056,0.169 c -0.113,2.273 0.924,4.306 3.113,6.1 2.187,1.793 4.972,2.69 8.353,2.69 3.361,0 6.067,-0.855 8.113,-2.563 2.047,-1.709 3.071,-4.16 3.071,-7.353 V 3.747 c 0,-1.07 0.061,-2.113 0.183,-3.127 0.122,-1.015 0.325,-2.019 0.606,-3.015 z" /></g><g
           transform="translate(335.2109,46.5254)"
           id="g114"><path
             id="path116"
             style="fill:#000000;fill-opacity:1;fill-rule:nonzero;stroke:none"
             d="m 0,0 c 0,3.904 -0.752,7.078 -2.254,9.521 -1.503,2.443 -3.727,3.664 -6.677,3.664 -2.347,0 -4.24,-0.584 -5.676,-1.754 -1.437,-1.17 -2.503,-2.67 -3.198,-4.499 V -6.904 c 0.751,-1.774 1.873,-3.184 3.367,-4.232 1.493,-1.046 3.347,-1.569 5.564,-1.569 2.948,0 5.165,1.094 6.648,3.282 C -0.742,-7.234 0,-4.292 0,-0.595 Z m 3.409,-0.592 c 0,-4.563 -1.033,-8.202 -3.099,-10.916 -2.067,-2.714 -4.912,-4.071 -8.537,-4.071 -2.234,0 -4.16,0.446 -5.775,1.339 -1.615,0.891 -2.92,2.174 -3.915,3.845 l -0.367,-4.592 h -2.902 v 43.949 h 3.381 V 10.706 c 1.014,1.708 2.31,3.028 3.888,3.958 1.578,0.93 3.456,1.395 5.635,1.395 3.662,0 6.525,-1.461 8.592,-4.381 C 2.376,8.757 3.409,4.864 3.409,0 Z" /></g><g
           transform="translate(357.1572,65.542)"
           id="g118"><path
             id="path120"
             style="fill:#000000;fill-opacity:1;fill-rule:nonzero;stroke:none"
             d="M 0,0 4.563,9.945 H 8.592 L 6.901,0.028 V -5.409 H 0 Z" /></g><g
           transform="translate(388.541,31.5381)"
           id="g122"><path
             id="path124"
             style="fill:#000000;fill-opacity:1;fill-rule:nonzero;stroke:none"
             d="m 0,0 h -8.227 v 33.75 h -8.338 v 5.804 L 0,41.019 Z" /></g><g
           transform="translate(421.6445,61.3164)"
           id="g126"><path
             id="path128"
             style="fill:#000000;fill-opacity:1;fill-rule:nonzero;stroke:none"
             d="M 0,0 C 0,1.652 -0.437,2.981 -1.311,3.986 -2.184,4.991 -3.362,5.493 -4.847,5.493 -6.35,5.493 -7.522,5 -8.368,4.015 -9.213,3.028 -9.636,1.69 -9.636,0 c 0,-1.71 0.427,-3.066 1.282,-4.071 0.855,-1.005 2.042,-1.507 3.564,-1.507 1.483,0 2.653,0.502 3.507,1.507 C -0.429,-3.066 0,-1.71 0,0 m 0.93,-17.988 c 0,1.837 -0.536,3.307 -1.607,4.413 -1.071,1.105 -2.461,1.658 -4.17,1.658 -1.727,0 -3.113,-0.553 -4.155,-1.658 -1.042,-1.106 -1.563,-2.576 -1.563,-4.413 0,-1.874 0.525,-3.35 1.578,-4.427 1.051,-1.077 2.45,-1.616 4.197,-1.616 1.709,0 3.089,0.543 4.142,1.63 1.051,1.087 1.578,2.557 1.578,4.413 M 8.197,0.366 c 0,-2.048 -0.54,-3.86 -1.62,-5.437 -1.08,-1.577 -2.568,-2.808 -4.465,-3.691 2.179,-0.92 3.897,-2.235 5.156,-3.944 1.258,-1.709 1.887,-3.662 1.887,-5.859 0,-3.794 -1.287,-6.71 -3.859,-8.748 -2.574,-2.038 -5.936,-3.057 -10.086,-3.057 -4.189,0 -7.574,1.019 -10.156,3.057 -2.582,2.038 -3.873,4.954 -3.873,8.748 0,2.215 0.624,4.173 1.873,5.874 1.249,1.699 2.971,3.018 5.17,3.958 -1.916,0.881 -3.41,2.107 -4.48,3.675 -1.07,1.569 -1.606,3.376 -1.606,5.424 0,3.644 1.192,6.466 3.578,8.466 2.385,2 5.531,3 9.437,3 3.888,0 7.035,-1 9.438,-3 2.404,-2 3.606,-4.822 3.606,-8.466" /></g></g></g></g></svg>