<svg width="840" height="292" viewBox="0 0 840 292" version="1.1" xmlns="http://www.w3.org/2000/svg" xmlns:xlink="http://www.w3.org/1999/xlink">
<g id="Canvas" fill="none">
<g id="Component">
<g id="Star">
<path d="M 37 0L 45.307 25.5664L 72.1891 25.5664L 50.441 41.3673L 58.7481 66.9336L 37 51.1327L 15.2519 66.9336L 23.559 41.3673L 1.81091 25.5664L 28.693 25.5664L 37 0Z" fill="#C4C4C4"/>
</g>
<g id="Star_2">
<path d="M 37 0L 45.307 25.5664L 72.1891 25.5664L 50.441 41.3673L 58.7481 66.9336L 37 51.1327L 15.2519 66.9336L 23.559 41.3673L 1.81091 25.5664L 28.693 25.5664L 37 0Z" transform="translate(0 109)" fill="#C4C4C4"/>
</g>
<g id="Star_3">
<path d="M 37 0L 45.307 25.5664L 72.1891 25.5664L 50.441 41.3673L 58.7481 66.9336L 37 51.1327L 15.2519 66.9336L 23.559 41.3673L 1.81091 25.5664L 28.693 25.5664L 37 0Z" transform="translate(0 218)" fill="#C4C4C4"/>
</g>
<g id="Ellipse">
<circle cx="73" cy="73" r="73" transform="translate(318 73)" fill="#C4C4C4"/>
</g>
<g id="Py">
<path d="M 8.46094 31.6406L 8.46094 45L 3.96094 45L 3.96094 10.875L 16.5469 10.875C 20.2812 10.875 23.2031 11.8281 25.3125 13.7344C 27.4375 15.6406 28.5 18.1641 28.5 21.3047C 28.5 24.6172 27.4609 27.1719 25.3828 28.9688C 23.3203 30.75 20.3594 31.6406 16.5 31.6406L 8.46094 31.6406ZM 8.46094 27.9609L 16.5469 27.9609C 18.9531 27.9609 20.7969 27.3984 22.0781 26.2734C 23.3594 25.1328 24 23.4922 24 21.3516C 24 19.3203 23.3594 17.6953 22.0781 16.4766C 20.7969 15.2578 19.0391 14.625 16.8047 14.5781L 8.46094 14.5781L 8.46094 27.9609ZM 42.2344 38.6484L 48.1406 19.6406L 52.7812 19.6406L 42.5859 48.9141C 41.0078 53.1328 38.5 55.2422 35.0625 55.2422L 34.2422 55.1719L 32.625 54.8672L 32.625 51.3516L 33.7969 51.4453C 35.2656 51.4453 36.4062 51.1484 37.2188 50.5547C 38.0469 49.9609 38.7266 48.875 39.2578 47.2969L 40.2188 44.7188L 31.1719 19.6406L 35.9062 19.6406L 42.2344 38.6484Z" transform="translate(364 118)" fill="black"/>
</g>
<g id="Group">
<g id="Union">
<path fill-rule="evenodd" clip-rule="evenodd" d="M 112.5 0.5L 0.5 0.5L 0.5 72.0811C 0.5 74.1907 1.92069 76.2998 4.73019 78.3016C 7.52707 80.2943 11.6066 82.1095 16.6927 83.6423C 26.8586 86.7059 40.9328 88.6081 56.5 88.6081C 72.0672 88.6081 86.1414 86.7059 96.3073 83.6423C 101.393 82.1095 105.473 80.2943 108.27 78.3016C 111.079 76.2998 112.5 74.1907 112.5 72.0811L 112.5 0.5Z" transform="translate(727 108.892)" fill="#C4C4C4"/>
<path fill-rule="evenodd" clip-rule="evenodd" d="M 112.5 0.5L 0.5 0.5L 0.5 72.0811C 0.5 74.1907 1.92069 76.2998 4.73019 78.3016C 7.52707 80.2943 11.6066 82.1095 16.6927 83.6423C 26.8586 86.7059 40.9328 88.6081 56.5 88.6081C 72.0672 88.6081 86.1414 86.7059 96.3073 83.6423C 101.393 82.1095 105.473 80.2943 108.27 78.3016C 111.079 76.2998 112.5 74.1907 112.5 72.0811L 112.5 0.5Z" stroke-miterlimit="8" transform="translate(727 108.892)" stroke="black"/>
</g>
<g id="Subtract">
<path fill-rule="evenodd" clip-rule="evenodd" d="M 0 0C 0.993439 9.14103 25.8954 16.4595 56.4692 16.4595C 87.0431 16.4595 111.945 9.14103 112.938 0L 111.931 0C 111.7 1.69897 110.431 3.47723 107.949 5.2457C 105.214 7.1942 101.192 8.99 96.1322 10.5149C 86.0249 13.5609 72.0016 15.4595 56.4692 15.4595C 40.9368 15.4595 26.9135 13.5609 16.8062 10.5149C 11.7462 8.99 7.72424 7.1942 4.98953 5.2457C 2.50751 3.47723 1.23822 1.69897 1.00778 0L 0 0Z" transform="translate(727.031 147.486)" fill="black"/>
</g>
<g id="Ellipse 2">
<ellipse cx="56.5" cy="17.027" rx="56.5" ry="17.027" transform="translate(727 93)" fill="#C4C4C4"/>
<g mask="url(#path5_ins)" transform="translate(727 93)">
<ellipse cx="56.5" cy="17.027" rx="56.5" ry="17.027" stroke-width="2" stroke="black"/>
</g>
</g>
</g>
<g id="Arrow">
<path d="M 203.118 0.707107C 203.508 0.316582 203.508 -0.316582 203.118 -0.707107L 196.754 -7.07107C 196.363 -7.46159 195.73 -7.46159 195.339 -7.07107C 194.949 -6.68054 194.949 -6.04738 195.339 -5.65685L 200.996 0L 195.339 5.65685C 194.949 6.04738 194.949 6.68054 195.339 7.07107C 195.73 7.46159 196.363 7.46159 196.754 7.07107L 203.118 0.707107ZM 0 1L 202.41 1L 202.41 -1L 0 -1L 0 1Z" transform="matrix(0.943627 0.331011 -0.331011 0.943627 91 51)" fill="black"/>
</g>
<g id="Arrow 2">
<path d="M 199.707 0.707107C 200.098 0.316582 200.098 -0.316582 199.707 -0.707107L 193.343 -7.07107C 192.953 -7.46159 192.319 -7.46159 191.929 -7.07107C 191.538 -6.68054 191.538 -6.04738 191.929 -5.65685L 197.586 0L 191.929 5.65685C 191.538 6.04738 191.538 6.68054 191.929 7.07107C 192.319 7.46159 192.953 7.46159 193.343 7.07107L 199.707 0.707107ZM 0 1L 199 1L 199 -1L 0 -1L 0 1Z" transform="translate(83 145)" fill="black"/>
</g>
<g id="Arrow 3">
<path d="M 210.366 0.707107C 210.757 0.316582 210.757 -0.316582 210.366 -0.707107L 204.002 -7.07107C 203.612 -7.46159 202.979 -7.46159 202.588 -7.07107C 202.198 -6.68054 202.198 -6.04738 202.588 -5.65685L 208.245 0L 202.588 5.65685C 202.198 6.04738 202.198 6.68054 202.588 7.07107C 202.979 7.46159 203.612 7.46159 204.002 7.07107L 210.366 0.707107ZM 0 1L 209.659 1L 209.659 -1L 0 -1L 0 1Z" transform="matrix(0.949159 -0.314797 0.314797 0.949159 83 241)" fill="black"/>
</g>
<g id="Arrow 4">
<path d="M 227.707 0.707107C 228.098 0.316582 228.098 -0.316582 227.707 -0.707107L 221.343 -7.07107C 220.953 -7.46159 220.319 -7.46159 219.929 -7.07107C 219.538 -6.68054 219.538 -6.04738 219.929 -5.65685L 225.586 0L 219.929 5.65685C 219.538 6.04738 219.538 6.68054 219.929 7.07107C 220.319 7.46159 220.953 7.46159 221.343 7.07107L 227.707 0.707107ZM 0 1L 227 1L 227 -1L 0 -1L 0 1Z" transform="translate(481 118)" fill="black"/>
</g>
<g id="Arrow 5">
<path d="M 221.707 0.707107C 222.098 0.316582 222.098 -0.316582 221.707 -0.707107L 215.343 -7.07107C 214.953 -7.46159 214.319 -7.46159 213.929 -7.07107C 213.538 -6.68054 213.538 -6.04738 213.929 -5.65685L 219.586 0L 213.929 5.65685C 213.538 6.04738 213.538 6.68054 213.929 7.07107C 214.319 7.46159 214.953 7.46159 215.343 7.07107L 221.707 0.707107ZM 0 1L 221 1L 221 -1L 0 -1L 0 1Z" transform="translate(708 170) scale(-1)" fill="black"/>
</g>
<g id="DB">
<path d="M 3.96094 45L 3.96094 10.875L 13.5938 10.875C 16.5625 10.875 19.1875 11.5312 21.4688 12.8438C 23.75 14.1562 25.5078 16.0234 26.7422 18.4453C 27.9922 20.8672 28.625 23.6484 28.6406 26.7891L 28.6406 28.9688C 28.6406 32.1875 28.0156 35.0078 26.7656 37.4297C 25.5312 39.8516 23.7578 41.7109 21.4453 43.0078C 19.1484 44.3047 16.4688 44.9688 13.4062 45L 3.96094 45ZM 8.46094 14.5781L 8.46094 41.3203L 13.1953 41.3203C 16.6641 41.3203 19.3594 40.2422 21.2812 38.0859C 23.2188 35.9297 24.1875 32.8594 24.1875 28.875L 24.1875 26.8828C 24.1875 23.0078 23.2734 20 21.4453 17.8594C 19.6328 15.7031 17.0547 14.6094 13.7109 14.5781L 8.46094 14.5781ZM 35.4609 45L 35.4609 10.875L 46.6172 10.875C 50.3203 10.875 53.1016 11.6406 54.9609 13.1719C 56.8359 14.7031 57.7734 16.9688 57.7734 19.9688C 57.7734 21.5625 57.3203 22.9766 56.4141 24.2109C 55.5078 25.4297 54.2734 26.375 52.7109 27.0469C 54.5547 27.5625 56.0078 28.5469 57.0703 30C 58.1484 31.4375 58.6875 33.1562 58.6875 35.1562C 58.6875 38.2188 57.6953 40.625 55.7109 42.375C 53.7266 44.125 50.9219 45 47.2969 45L 35.4609 45ZM 39.9609 29.0391L 39.9609 41.3203L 47.3906 41.3203C 49.4844 41.3203 51.1328 40.7812 52.3359 39.7031C 53.5547 38.6094 54.1641 37.1094 54.1641 35.2031C 54.1641 31.0938 51.9297 29.0391 47.4609 29.0391L 39.9609 29.0391ZM 39.9609 25.4297L 46.7578 25.4297C 48.7266 25.4297 50.2969 24.9375 51.4688 23.9531C 52.6562 22.9688 53.25 21.6328 53.25 19.9453C 53.25 18.0703 52.7031 16.7109 51.6094 15.8672C 50.5156 15.0078 48.8516 14.5781 46.6172 14.5781L 39.9609 14.5781L 39.9609 25.4297Z" transform="translate(753 28)" fill="black"/>
</g>
</g>
</g>
<defs>

<mask id="path5_ins" fill="white">
<ellipse cx="56.5" cy="17.027" rx="56.5" ry="17.027"/>
</mask>

</defs>
</svg>

